PathFileType	4	(X/Y/Z)	C:/Users/beibeiliu/ov580/test_trc/User1\sequence.8_training_dense_right.trc
DataRate	CameraRate	NumFrames	NumMarkers	Units	OrigDataRate	OrigDataStartFrame	OrigNumFrames
120	120	21	19	mm	120	73	289
Frame#	Time	ThumbCMC			ThumbMCP			ThumbIP			ThumbTip			IndexMCP			IndexPIP			IndexTip			MiddleMCP			MiddlePIP			MiddleTip			RingMCP			RingPIP			RingTip			PinkyMCP			PinkyPIP			PinkyTip			BackHand1			BackHand2			BackHand3	
		X0	Y0	Z0	X1	Y1	Z1	X2	Y2	Z2	X3	Y3	Z3	X4	Y4	Z4	X5	Y5	Z5	X6	Y6	Z6	X7	Y7	Z7	X8	Y8	Z8	X9	Y9	Z9	X10	Y10	Z10	X11	Y11	Z11	X12	Y12	Z12	X13	Y13	Z13	X14	Y14	Z14	X15	Y15	Z15	X16	Y16	Z16	X17	Y17	Z17	X18	Y18	Z18	
72	0.6	162.307	119.188	35.6784	141.484	126.45	12.3316	130.19	138.722	-7.66646	116.671	152.613	-14.0644	157.972	92.5184	-45.2665	135.27	68.5903	-30.0721	144.83	82.7312	0.551353	167.978	70.5791	-45.5278	145.393	53.7528	-25.6273	155.064	72.1052	6.20041	179.522	54.9923	-35.9385	154.027	45.7619	-13.6527	170.296	60.4387	12.8292	192.638	43.085	-23.2536	168.374	39.6573	-4.74606	180.378	57.6867	19.1427	218.868	84.383	3.54501	222.077	88.9118	36.3353	196.098	115.628	16.6444	
73	0.608333	159.985	115.859	31.7537	135.857	121.372	16.5339	123.727	129.284	-4.71342	110.066	141.58	-11.3474	154.811	88.2673	-45.7903	134.036	65.0678	-33.07	142.002	74.5261	-0.327931	169.165	68.6771	-45.9078	149.163	49.6172	-28.6006	157.449	67.1724	6.26634	182.523	54.0532	-35.9749	160.542	37.5645	-12.3007	172.729	57.6919	12.6654	197.461	40.557	-22.6975	174.835	32.4792	-3.69516	184.544	57.2013	19.5011	216.165	86.5958	0.919588	220.604	92.3993	38.7384	193.641	114.665	19.7599	
74	0.616667	156.423	110.26	34.1221	133.75	111.625	14.3936	118.615	120.305	-1.60954	102.278	130.33	-11.1715	153.344	84.3094	-44.543	136.826	57.0142	-31.3156	147.034	68.0193	0.185819	169.562	65.9953	-45.286	153.341	43.647	-25.3685	161.601	60.184	7.35982	186.414	52.592	-36.5438	165.791	35.3444	-10.3162	174.233	52.8147	12.3134	201.792	41.4552	-23.7031	179.411	32.4532	-2.99332	187.39	57.49	16.3609	218.248	87.6947	-0.420296	220.39	95.2013	38.9592	191.432	114.71	15.9564	
75	0.625	152.356	106.647	35.0128	129.181	104.531	20.5102	111.871	111.56	3.82341	92.8499	121.768	-5.34331	150.133	79.0331	-44.2106	139.765	51.9344	-31.5154	143.681	63.8677	1.16505	169.719	68.5713	-45.0048	153.523	41.0911	-25.4139	163.811	61.244	9.00439	186.008	49.2113	-36.9952	169.476	33.394	-16.5761	177.975	52.6239	11.5127	206.359	45.3613	-25.1236	186.402	30.0644	-7.89315	190.221	55.3091	17.3507	216.645	92.5912	-0.666313	218.541	98.702	37.4335	185.68	117.208	16.8592	
76	0.633333	149.772	101.017	38.2703	124.889	97.0674	18.7752	107.219	99.8665	4.55397	86.353	105.615	0.915818	151.488	77.6685	-43.3325	140.18	46.3937	-32.806	149.122	60.4587	3.15247	168.791	65.259	-45.7874	159.897	36.3168	-26.063	163.895	55.0274	7.05807	188.112	54.9322	-37.5784	175.575	31.813	-13.1287	181.282	52.2345	11.0925	207.698	50.2242	-26.8324	191.501	32.773	-9.49346	191.083	59.2913	14.3737	211.133	98.214	2.69472	218.672	105.094	33.0069	182.154	115.37	22.2199	
77	0.641667	145.543	93.7176	39.3502	125.32	81.8397	24.4362	103.09	84.2895	10.8865	81.1557	84.4545	6.17415	142.814	66.6986	-42.8193	145.842	38.1093	-29.5923	153.433	52.7454	2.82093	169.119	60.4816	-45.3906	162.678	33.2485	-27.0466	170.786	52.121	7.78093	191.455	49.8469	-39.4212	180.666	31.7533	-16.7765	182.692	50.8011	10.2084	213.623	52.3126	-28.7588	199.962	34.4499	-7.78514	198.4	61.4671	13.7696	205.321	101.492	-2.68547	213.295	107.996	30.3721	176.705	111.698	18.9332	
78	0.65	143.82	88.7434	42.0705	122.605	75.4306	29.8938	96.4968	75.4241	11.7659	79.2093	71.8704	5.21907	145.296	65.492	-40.2262	147.815	33.1244	-30.0167	155.615	48.9406	2.7479	168.452	62.8385	-45.2186	171.881	31.0577	-27.4483	173.06	50.09	7.04176	192.299	53.8842	-40.0109	189.789	31.1847	-14.9965	188.48	53.8748	9.08746	212.26	54.4492	-31.4794	205.204	36.5497	-11.2792	196.946	61.0872	11.6285	199.736	106.907	-3.40888	204.685	114.408	32.5959	169.932	110.443	18.08	
79	0.658333	142.748	84.5512	40.8941	120.525	71.7189	30.3219	102.484	65.858	17.309	81.21	62.537	9.13493	141.858	58.2931	-40.7203	155.203	31.2862	-28.1662	154.118	46.2009	3.10857	165.997	61.3536	-45.3636	172.604	31.1932	-28.3844	173.084	53.756	8.52688	189.524	59.7886	-40.8063	190.181	33.0404	-16.8225	190.376	57.4119	8.36845	213.309	59.4524	-34.624	203.142	41.9278	-14.3642	200.52	64.4427	12.1468	195.719	109.109	-2.73165	199.937	115.872	29.6491	165.102	108.158	20.9776	
80	0.666667	143.247	82.4742	42.7435	119.898	66.2103	29.9897	100.29	58.9227	18.2449	79.6985	52.4477	17.0385	145.404	57.4071	-42.2593	156.298	29.6061	-28.5617	158.189	46.3298	3.43872	168.53	59.6067	-45.7528	178.008	31.5681	-27.6046	175.066	50.9184	7.07569	190.262	61.1903	-42.6605	192.619	35.5659	-20.4834	190.9	56.4721	7.82745	209.925	64.7237	-35.8985	208.004	43.9562	-13.315	202.08	68.3399	9.78054	191.322	110.322	-3.16643	198.814	116.297	29.6439	162.901	106.724	21.4121	
81	0.675	143.397	78.9993	41.9989	123.265	60.2425	31.5373	101.85	51.6726	20.4572	85.7387	42.3734	13.3379	142.61	54.4735	-40.2015	157.843	28.8586	-27.8535	158.7	46.4672	4.8474	170.477	57.5037	-47.8547	180.142	32.7852	-24.9097	175.773	52.3582	6.75078	191.734	60.0717	-43.7087	193.814	36.107	-18.5164	195.779	59.1994	7.36502	210.796	65.4815	-36.6147	211.018	45.8823	-14.6904	201.516	66.1078	10.0473	190.83	111.081	-2.48671	200.371	119.424	29.5928	164.447	107.625	19.2029	
82	0.683333	141.084	75.3293	41.6806	125.205	55.1724	30.8853	105.814	43.9881	16.6249	87.9409	32.3646	12.7092	147.024	52.88	-41.1379	161.309	28.7262	-29.4389	163.968	45.1152	0.844549	168.045	58.9769	-46.515	176.748	30.8762	-30.4498	177.349	54.0676	7.1761	190.813	59.1068	-43.6378	195.034	37.5047	-18.2149	194.964	56.9358	5.60386	210.021	69.6783	-37.27	212.413	46.9697	-15.6394	201.793	64.9537	8.90322	189.43	111.418	-7.85695	195.146	119.795	26.7847	160.799	105.067	17.3993	
83	0.691667	145.861	74.9988	41.3218	126.189	50.4934	30.361	109.745	38.1979	18.4283	92.5707	24.5215	12.1028	146.383	54.7893	-40.9382	161.451	26.3128	-27.6574	160.653	44.0489	3.84393	170.112	59.9703	-47.8921	180.36	31.4905	-30.5363	179.141	50.2713	4.69621	189.283	62.3594	-43.0735	198.679	37.7337	-23.0448	192.482	57.6727	6.77565	210.758	65.7632	-36.8564	210.017	48.0006	-14.3332	201.666	65.2363	8.47977	191.119	112.663	-6.71862	199.722	119.713	30.0342	160.955	106.938	18.3779	
84	0.7	145.953	73.8039	40.6076	130.924	49.4894	27.4221	111.127	33.1027	15.1296	99.9422	19.2352	8.96949	143.102	51.2281	-40.5392	163.608	27.9031	-29.1014	162.743	44.5638	2.16889	168.707	59.8821	-46.2908	181.276	29.9358	-27.9571	181.828	52.1709	5.33548	189.819	58.5421	-44.3546	202.647	37.3208	-22.0859	192.933	55.7744	4.92701	212.513	71.4577	-37.3607	215.008	46.1074	-17.3975	201.816	64.4189	6.35636	186.28	110.328	-7.26324	197.16	119.434	27.2612	162.557	105.527	16.7564	
85	0.708333	145.834	73.3897	38.3723	131.796	47.4338	28.3994	117.28	31.6206	12.1049	102.129	14.9765	8.56464	145.123	55.2001	-40.0691	162.569	27.6262	-31.8531	163.301	44.3626	1.78038	168.362	56.4676	-48.0566	182.668	31.7235	-32.6862	180.31	52.1661	5.43499	195.28	60.4585	-44.9538	198.887	37.2933	-24.2457	197.685	58.5805	4.65122	212.663	68.2301	-37.5692	213.958	47.1119	-18.8274	201.465	68.2583	5.50964	188.183	111.212	-4.03335	198.581	118.645	31.0026	163.996	106.902	21.0687	
86	0.716667	144.847	71.9926	38.3977	133.182	45.0552	29.4782	116.486	28.4859	11.1526	106.62	11.9157	5.80157	145.178	54.4857	-42.6254	161.663	30.3275	-35.1954	164.367	47.1785	0.901611	170.106	61.1139	-49.4176	182.582	32.1379	-31.8343	178.547	52.4776	3.59751	194.789	60.3661	-46.0285	197.542	37.9762	-22.5088	191.796	58.9112	4.10414	211.883	70.9176	-37.8482	210.399	48.0713	-19.6888	201.325	64.5417	5.34327	189.37	111.046	-5.89027	197.921	121.708	29.5809	161.33	107.594	18.1702	
87	0.725	147.145	72.0569	40.2049	133.929	44.4152	22.7435	119.647	26.2785	7.12405	109.9	9.46566	-4.36998	145.696	58.5669	-43.7538	160.431	32.1049	-37.0447	161.802	40.8315	-1.86266	168.468	61.0181	-50.2907	177.565	33.5733	-34.1333	180.916	50.9376	0.979189	191.862	63.1584	-46.8249	199.425	39.7313	-24.5774	193.567	57.4232	2.43496	213.959	72.0184	-38.8271	210.916	49.6096	-21.3093	204.188	67.5108	6.27381	191.343	114.42	-3.72129	198.182	118.552	28.9368	163.534	106.926	21.9873	
88	0.733333	147.802	72.151	40.4301	134.417	43.3508	23.2347	125.155	29.1039	3.72278	117.397	12.2397	-12.3794	145.702	64.2239	-43.6563	161.193	34.4174	-36.7334	160.085	44.8443	-2.16785	171.574	66.0305	-51.7575	179.211	36.905	-37.6763	177.928	51.5261	1.1834	189.13	64.4463	-46.6313	195.454	40.4971	-25.1855	195.035	61.2626	3.18459	210.977	74.4178	-38.887	211.035	49.1666	-20.5814	202.042	68.9016	6.68316	189.585	112.2	-5.14675	197.06	118.258	29.5205	162.259	108.452	21.5062	
89	0.741667	147.129	73.5464	34.3178	137.583	45.7874	19.0609	124.674	30.6343	-1.98113	121.625	15.7783	-17.0358	144.24	69.2447	-43.7368	154.007	39.3638	-42.2094	163.167	47.6447	-4.65359	170.878	72.2697	-50.7596	175.829	39.34	-37.758	175.406	54.5206	-0.665928	190.054	68.2793	-47.8912	196.681	43.6047	-30.2026	191.498	58.2313	0.277782	214.804	74.6171	-38.9929	208.804	50.7484	-24.5984	202.173	64.0383	5.22106	196.03	114.95	-0.862634	203.507	117.985	31.13	162.229	110.728	20.8627	
90	0.75	147.981	74.3136	36.3202	135.856	48.4125	13.7359	125.107	35.6816	-9.63883	120.997	19.301	-26.7708	142	75.0112	-45.6307	156.139	46.8889	-45.5663	160.257	48.0611	-10.3995	171.789	79.2121	-51.3287	174.312	44.507	-41.6691	177.806	53.6619	-4.48472	194.496	75.0096	-48.4172	194.309	45.3171	-29.347	193.717	62.1553	-0.403315	214.698	77.471	-38.044	211.658	50.8226	-23.7573	202.899	64.9778	2.51391	196.286	115.335	-1.56901	204.073	115.447	38.3524	164.968	112.738	23.2816	
91	0.758333	152.542	77.6801	34.1474	136.976	52.5249	9.66675	132.031	41.0319	-10.3093	124.289	26.681	-31.4513	147.76	83.5282	-46.3342	154.384	50.5984	-45.5808	160.484	53.1789	-11.7528	173.552	82.7839	-51.7625	175.846	47.7898	-41.0318	178.186	58.2177	-4.59899	194.585	77.4584	-49.2291	197.024	47.2338	-31.3186	193.417	60.745	-3.22265	220.054	78.9998	-38.1734	210.329	52.9686	-23.6566	203.974	65.9362	2.52443	201.943	117.353	0.3891	210.343	115.252	38.6058	170.795	112.76	27.4738	
92	0.766667	152.437	79.5068	31.7854	143.72	57.4356	7.24056	131.92	46.0243	-14.7963	130.338	36.3235	-37.1559	148.666	89.4	-45.32	155.047	56.2258	-47.9845	162.973	57.379	-13.3666	176.581	88.0987	-51.9749	174.906	53.1594	-43.8098	182.839	59.3715	-7.65493	196.86	81.229	-48.227	197.303	50.92	-37.9083	197.718	64.2944	-1.6626	220.907	77.0622	-39.3371	210.413	54.5881	-28.1859	204.344	67.8189	3.663	208.114	117.365	4.1371	216.192	113.134	41.826	176.098	112.826	28.0078	
